<svg width="58" height="59" viewBox="0 0 58 59" fill="none" xmlns="http://www.w3.org/2000/svg">
<rect opacity="0.3" y="0.5" width="58" height="58" rx="29" fill="white"/>
<rect x="6.42188" y="6.92114" width="45.1579" height="45.1579" rx="22.5789" fill="white"/>
<path d="M25.0872 21.4827C24.9638 21.609 24.8947 21.7786 24.8947 21.9552C24.8947 22.1318 24.9638 22.3014 25.0872 22.4277L31.9812 29.5L25.0872 36.5708C24.9638 36.6971 24.8947 36.8667 24.8947 37.0433C24.8947 37.2199 24.9638 37.3895 25.0872 37.5158C25.1472 37.5774 25.2189 37.6264 25.2981 37.6598C25.3773 37.6933 25.4624 37.7105 25.5484 37.7105C25.6344 37.7105 25.7195 37.6933 25.7987 37.6598C25.8779 37.6264 25.9496 37.5774 26.0096 37.5158L33.3408 29.9937C33.4695 29.8616 33.5416 29.6844 33.5416 29.5C33.5416 29.3155 33.4695 29.1383 33.3408 29.0062L26.0096 21.4841C25.9496 21.4225 25.8779 21.3735 25.7987 21.3401C25.7195 21.3067 25.6344 21.2894 25.5484 21.2894C25.4624 21.2894 25.3773 21.3067 25.2981 21.3401C25.2189 21.3735 25.1472 21.4225 25.0872 21.4841V21.4827Z" fill="url(#paint0_linear_410_3570)"/>
<defs>
<linearGradient id="paint0_linear_410_3570" x1="25.0453" y1="37.7105" x2="34.2447" y2="37.3066" gradientUnits="userSpaceOnUse">
<stop stop-color="#1D9691"/>
<stop offset="1" stop-color="#4472C4"/>
</linearGradient>
</defs>
</svg>
