<svg width="7" height="15" viewBox="0 0 9 17" fill="none" xmlns="http://www.w3.org/2000/svg">
<path d="M8.80752 16.8062C8.93092 16.6796 9 16.5095 9 16.3324C9 16.1553 8.93092 15.9853 8.80752 15.8586L1.91353 8.76689L8.80752 1.6766C8.93092 1.54992 9 1.37986 9 1.20278C9 1.0257 8.93092 0.85564 8.80752 0.72896C8.74754 0.667187 8.67583 0.618092 8.59662 0.584566C8.51741 0.551043 8.4323 0.533771 8.34632 0.533771C8.26034 0.533771 8.17523 0.551042 8.09602 0.584566C8.01681 0.618091 7.9451 0.667187 7.88512 0.72896L0.553975 8.27178C0.425215 8.40425 0.353151 8.58191 0.353151 8.76688C0.353151 8.95186 0.425214 9.12952 0.553975 9.26199L7.88512 16.8048C7.9451 16.8666 8.01681 16.9157 8.09602 16.9492C8.17523 16.9827 8.26034 17 8.34632 17C8.4323 17 8.5174 16.9827 8.59662 16.9492C8.67583 16.9157 8.74754 16.8666 8.80752 16.8048L8.80752 16.8062Z" fill="url(#paint0_linear_410_3658)"/>
<defs>
<linearGradient id="paint0_linear_410_3658" x1="8.84946" y1="0.533768" x2="-0.350092" y2="0.936515" gradientUnits="userSpaceOnUse">
<stop stop-color="#1D9691"/>
<stop offset="1" stop-color="#4472C4"/>
</linearGradient>
</defs>
</svg>
