<svg width="9" height="17" viewBox="0 0 9 17" fill="none" xmlns="http://www.w3.org/2000/svg">
<path d="M0.192479 0.19377C0.0690824 0.32045 0 0.490508 0 0.667591C0 0.844674 0.0690824 1.01473 0.192479 1.14141L7.08647 8.23311L0.192479 15.3234C0.0690824 15.4501 0 15.6201 0 15.7972C0 15.9743 0.0690824 16.1444 0.192479 16.271C0.252458 16.3328 0.32417 16.3819 0.403383 16.4154C0.482595 16.449 0.567702 16.4662 0.653681 16.4662C0.73966 16.4662 0.824768 16.449 0.90398 16.4154C0.983193 16.3819 1.0549 16.3328 1.11488 16.271L8.44603 8.72821C8.57479 8.59575 8.64685 8.41809 8.64685 8.23311C8.64685 8.04814 8.57479 7.87048 8.44603 7.73801L1.11488 0.195189C1.0549 0.133417 0.983193 0.08432 0.90398 0.0507959C0.824768 0.0172718 0.73966 0 0.653681 0C0.567702 0 0.482595 0.0172718 0.403383 0.0507959C0.32417 0.08432 0.252458 0.133417 0.192479 0.195189V0.19377Z" fill="url(#paint0_linear_410_3654)"/>
<defs>
<linearGradient id="paint0_linear_410_3654" x1="0.150537" y1="16.4662" x2="9.35009" y2="16.0635" gradientUnits="userSpaceOnUse">
<stop stop-color="#1D9691"/>
<stop offset="1" stop-color="#4472C4"/>
</linearGradient>
</defs>
</svg>
