<svg width="95" height="90" viewBox="0 0 95 90" fill="none" xmlns="http://www.w3.org/2000/svg">
<circle cx="47.6704" cy="45" r="45" fill="white"/>
<rect x="0.67041" y="23" width="94" height="42" rx="10" fill="url(#paint0_linear_410_3861)"/>
<path d="M9.03644 34.9883H77.4137C78.3373 34.9883 79.2624 35.0146 80.1853 34.9883H80.3043C81.0186 34.9883 81.7026 33.8449 81.6692 32.4997C81.6359 31.1544 81.0694 30.0111 80.3043 30.0111H11.927C11.0034 30.0111 10.0791 29.9862 9.15548 30.0111H9.03644C8.3229 30.0111 7.63893 31.1558 7.67153 32.4997C7.70414 33.8436 8.27133 34.9883 9.03644 34.9883Z" fill="white"/>
<path d="M9.13645 46.9695H42.512C44.0525 46.9695 45.5987 47.0381 47.1384 46.9695H47.2044C47.9702 46.9695 48.7042 45.8335 48.6692 44.5C48.6342 43.1665 48.0255 42.0305 47.2044 42.0305H13.8288C12.2891 42.0305 10.7429 41.9619 9.20236 42.0305H9.13645C8.37067 42.0305 7.63662 43.1665 7.67161 44.5C7.70661 45.8335 8.31533 46.9695 9.13645 46.9695Z" fill="white"/>
<path d="M9.21416 57.8672H72.2704C73.1219 57.8672 73.9762 57.8935 74.8286 57.8672H74.9392C75.8435 57.8672 76.7103 56.7241 76.669 55.3822C76.6277 54.0403 75.9088 52.8972 74.9392 52.8972H11.8829C11.0315 52.8972 10.1771 52.8723 9.32564 52.8972H9.21416C8.30985 52.8972 7.44301 54.0403 7.48433 55.3822C7.52565 56.7241 8.2445 57.8672 9.21416 57.8672Z" fill="#FBB43D"/>
<g opacity="0.2">
<path d="M9.21416 57.8672H72.2704C73.1219 57.8672 73.9762 57.8935 74.8286 57.8672H74.9392C75.8435 57.8672 76.7103 56.7241 76.669 55.3822C76.6277 54.0403 75.9088 52.8972 74.9392 52.8972H11.8829C11.0315 52.8972 10.1771 52.8723 9.32564 52.8972H9.21416C8.30985 52.8972 7.44301 54.0403 7.48433 55.3822C7.52565 56.7241 8.2445 57.8672 9.21416 57.8672Z" fill="#FBB43D" style="mix-blend-mode:screen"/>
</g>
<path d="M87.5417 68.1303L73.34 56.0152C72.7027 55.4715 71.7195 55.9054 71.6916 56.7426L71.0711 75.336C71.058 75.7279 71.2751 76.0912 71.6264 76.2653L71.8471 76.3748C72.2523 76.5756 72.7418 76.4795 73.041 76.1405L77.7287 70.8294L78.9206 69.6478C79.1079 69.4621 79.3609 69.3579 79.6246 69.3579H87.0892C87.2731 69.3579 87.4495 69.2853 87.5801 69.1558C87.8698 68.8686 87.8521 68.395 87.5417 68.1303Z" fill="white"/>
<path d="M71.1938 44C71.4717 44 71.7381 44.1112 71.9346 44.3092C72.1311 44.5071 72.2414 44.7756 72.2414 45.0555V49.2777C72.2414 49.5577 72.1311 49.8262 71.9346 50.0241C71.7381 50.2221 71.4717 50.3333 71.1938 50.3333C70.916 50.3333 70.6495 50.2221 70.4531 50.0241C70.2566 49.8262 70.1463 49.5577 70.1463 49.2777V45.0555C70.1463 44.7756 70.2566 44.5071 70.4531 44.3092C70.6495 44.1112 70.916 44 71.1938 44ZM63.0436 47.3989C63.1409 47.3006 63.2565 47.2226 63.3838 47.1694C63.5111 47.1161 63.6475 47.0888 63.7853 47.0888C63.9231 47.0888 64.0596 47.1161 64.1868 47.1694C64.3141 47.2226 64.4297 47.3006 64.527 47.3989L67.4896 50.3861C67.5896 50.4834 67.6694 50.5999 67.7243 50.7287C67.7792 50.8575 67.8081 50.996 67.8094 51.1361C67.8106 51.2763 67.7841 51.4153 67.7314 51.545C67.6787 51.6747 67.6009 51.7926 67.5026 51.8917C67.4042 51.9908 67.2872 52.0692 67.1585 52.1222C67.0298 52.1753 66.8918 52.202 66.7527 52.2008C66.6136 52.1996 66.4761 52.1705 66.3483 52.1152C66.2205 52.0598 66.1049 51.9794 66.0083 51.8786L63.0457 48.8935C62.8493 48.6956 62.739 48.4271 62.739 48.1472C62.739 47.8674 62.8493 47.5989 63.0457 47.401L63.0436 47.3989ZM79.344 47.3989C79.4416 47.4969 79.519 47.6134 79.5718 47.7416C79.6246 47.8699 79.6518 48.0073 79.6518 48.1462C79.6518 48.285 79.6246 48.4225 79.5718 48.5507C79.519 48.679 79.4416 48.7955 79.344 48.8935L76.3773 51.8786C76.2807 51.9794 76.1651 52.0598 76.0372 52.1152C75.9094 52.1705 75.772 52.1996 75.6329 52.2008C75.4938 52.202 75.3558 52.1753 75.2271 52.1222C75.0983 52.0692 74.9814 51.9908 74.883 51.8917C74.7847 51.7926 74.7069 51.6747 74.6542 51.545C74.6015 51.4153 74.575 51.2763 74.5762 51.1361C74.5774 50.996 74.6063 50.8575 74.6612 50.7287C74.7161 50.5999 74.7959 50.4834 74.896 50.3861L77.8586 47.401C78.055 47.2031 78.3214 47.0919 78.5992 47.0919C78.877 47.0919 79.1434 47.2031 79.3399 47.401L79.344 47.3989ZM59.6704 55.611C59.6704 55.3311 59.7808 55.0626 59.9772 54.8646C60.1737 54.6667 60.4402 54.5555 60.718 54.5555H64.9083C65.1862 54.5555 65.4526 54.6667 65.6491 54.8646C65.8455 55.0626 65.9559 55.3311 65.9559 55.611C65.9559 55.891 65.8455 56.1594 65.6491 56.3574C65.4526 56.5554 65.1862 56.6666 64.9083 56.6666H60.718C60.4402 56.6666 60.1737 56.5554 59.9772 56.3574C59.7808 56.1594 59.6704 55.891 59.6704 55.611ZM73.5823 55.1888C73.2766 54.9322 72.9046 54.7686 72.51 54.7172C72.1153 54.6658 71.7143 54.7288 71.3538 54.8986C70.9934 55.0685 70.6884 55.3383 70.4745 55.6764C70.2607 56.0145 70.1468 56.4071 70.1463 56.808V76.0211C70.1463 77.9717 72.5452 78.8795 73.8191 77.4123L78.0639 72.523C78.3591 72.1838 78.7229 71.912 79.1309 71.726C79.5388 71.5399 79.9815 71.4439 80.4293 71.4442H87.1569C89.1159 71.4442 90.0043 68.9742 88.4978 67.7118L73.5823 55.1867V55.1888ZM72.2414 76.0253V56.808L87.1569 69.3331H80.4293C79.6825 69.333 78.9443 69.4938 78.2642 69.8048C77.5842 70.1157 76.9779 70.5696 76.4862 71.136L72.2414 76.0232V76.0253Z" fill="black"/>
<defs>
<linearGradient id="paint0_linear_410_3861" x1="2.3069" y1="65" x2="99.136" y2="46.933" gradientUnits="userSpaceOnUse">
<stop stop-color="#1D9691"/>
<stop offset="1" stop-color="#4472C4"/>
</linearGradient>
</defs>
</svg>
